<svg xmlns="http://www.w3.org/2000/svg" width="943.13" height="947.038" viewBox="0 0 943.13 947.038"><g transform="translate(-1257 -126)"><g transform="translate(1013 32)"><path d="M633.32-497.83a93.553,93.553,0,0,0-18.19,9.49C605.05-481.03,258.16-78.59,252.82-67.92c-10.28,19.96-11.86,43.88-4.15,64.24l3.76,9.88L240.37,18.26,228.31,30.32l-8.9-4.55c-12.85-6.33-36.96-6.13-49.41.4-10.67,5.73-47.44,41.11-55.34,53.57-26.49,41.9-7.51,110.1,49.22,175.32a368.923,368.923,0,0,0,30.44,30.44c65.62,56.93,135.59,76.1,176.71,48.03,13.64-9.29,46.45-43.49,52.18-54.36,6.52-12.26,6.72-36.37.4-49.22l-4.55-8.89L431.12,209l12.06-12.06,9.88,3.76c20.36,7.71,44.27,6.13,64.24-4.15,11.86-6.13,413.7-353.02,421.21-363.49a65.046,65.046,0,0,0,11.86-42.89c-1.98-24.51,1.19-20.75-133.62-155.75C716.34-466.2,690.84-490.71,682.34-494.86,668.31-501.78,647.75-502.97,633.32-497.83Zm32.22,30.05c7.31,2.77,247.27,242.13,250.83,250.43s3.56,16.41-.39,26.29l-3.16,7.91H391.19l48.03-55.94c26.49-30.64,80.84-93.69,120.77-139.94,75.7-88.16,78.08-90.33,93.69-90.53A40.009,40.009,0,0,1,665.54-467.78ZM206.18,54.23c6.13,3.16,184.81,181.45,188.37,187.97a25.949,25.949,0,0,1,0,22.93c-1.58,2.96-12.06,14.43-23.32,25.3-23.32,22.93-29.06,25.7-51.19,23.92-38.54-3.16-85.19-30.44-126.11-73.73-43.68-46.25-66.81-100.01-57.32-134.21,1.58-5.93,7.12-13.04,21.35-27.47,10.48-10.67,21.74-21.15,24.91-23.13C189.58,51.66,199.66,50.87,206.18,54.23Z" transform="translate(236.56 595.002)" fill="#fff"/><path d="M169.22,163.93a10.671,10.671,0,0,0-3.16,6.92c0,8.7,10.28,21.74,19.37,24.51,14.82,4.55,13.05-21.35-2.17-30.64C175.54,159.98,173.17,159.78,169.22,163.93Z" transform="translate(236.56 595.002)" fill="#fff"/><path d="M206.57,215.33c-6.13,6.32,1.58,21.54,13.84,27.28,19.57,9.29,22.14-13.05,2.96-25.89C215.67,211.37,210.92,210.98,206.57,215.33Z" transform="translate(236.56 595.002)" fill="#fff"/><path d="M255.4,256.04c-3.95,3.95-2.77,8.9,3.56,16.21,10.48,11.86,26.29,14.03,28.86,3.95C290.98,263.36,264.69,246.75,255.4,256.04Z" transform="translate(236.56 595.002)" fill="#fff"/><path d="M38.125-44.1H22.852v-4.687q0-3.281-.586-4.18a2.155,2.155,0,0,0-1.953-.9,2.486,2.486,0,0,0-2.246,1.212,7.03,7.03,0,0,0-.762,3.675,10.418,10.418,0,0,0,.856,4.769q.818,1.6,4.647,3.867,10.981,6.517,13.832,10.7t2.852,13.477q0,6.758-1.582,9.961T31.8-.84A24.18,24.18,0,0,1,21.25,1.328a23.581,23.581,0,0,1-11.27-2.5q-4.668-2.5-6.113-6.367T2.422-18.516v-4.141H17.7v7.7q0,3.555.645,4.57a2.493,2.493,0,0,0,2.285,1.016,2.678,2.678,0,0,0,2.441-1.289,7.355,7.355,0,0,0,.8-3.828q0-5.586-1.523-7.3-1.562-1.719-7.7-5.742a75.7,75.7,0,0,1-8.125-5.9,13.8,13.8,0,0,1-3.3-5.078A22.347,22.347,0,0,1,1.914-46.8q0-7.266,1.855-10.625a12.486,12.486,0,0,1,6-5.254,23.917,23.917,0,0,1,10-1.895A26.054,26.054,0,0,1,30.684-62.5q4.512,2.07,5.977,5.215T38.125-46.6ZM73.076-63.242,82.48,0H65.674l-.883-11.367H58.909L57.92,0h-17l8.389-63.242ZM64.36-22.578q-1.248-10.745-2.5-26.562Q59.343-30.976,58.7-22.578Zm37.358-40.664v50.586h10V0H85.273V-63.242Zm41.367,0v12.656H133.32V0H116.875V-50.586h-9.727V-63.242Zm50.977,0v12.656H184.3V0H167.852V-50.586h-9.727V-63.242Zm41.328,37.031q0,9.531-.449,13.5a15.122,15.122,0,0,1-2.812,7.246A15.148,15.148,0,0,1,225.742-.43a23.25,23.25,0,0,1-9.375,1.758,23.822,23.822,0,0,1-9.121-1.66,15,15,0,0,1-6.5-4.98,14.969,14.969,0,0,1-2.93-7.227,133.535,133.535,0,0,1-.469-13.672v-10.82q0-9.531.449-13.5a15.122,15.122,0,0,1,2.813-7.246,15.148,15.148,0,0,1,6.387-5.039,23.25,23.25,0,0,1,9.375-1.758,23.822,23.822,0,0,1,9.121,1.66,15,15,0,0,1,6.5,4.98,14.969,14.969,0,0,1,2.93,7.227,133.535,133.535,0,0,1,.469,13.672ZM218.945-46.992a19.6,19.6,0,0,0-.488-5.645,1.944,1.944,0,0,0-2.012-1.23,2.246,2.246,0,0,0-1.973,1q-.684,1-.684,5.879v29.531q0,5.508.449,6.8a1.959,1.959,0,0,0,2.09,1.289,2.023,2.023,0,0,0,2.148-1.484,31.287,31.287,0,0,0,.469-7.07Zm22.578-16.25h12.3q11.914,0,16.113,1.094a12.355,12.355,0,0,1,6.387,3.594,11.378,11.378,0,0,1,2.734,5.566,84.115,84.115,0,0,1,.547,12.051v22.148q0,8.516-.8,11.387a8.564,8.564,0,0,1-2.793,4.492,11.617,11.617,0,0,1-4.922,2.266A44.484,44.484,0,0,1,262.266,0H241.523Zm16.445,10.82v41.6q3.555,0,4.375-1.426t.82-7.754V-44.57a32.985,32.985,0,0,0-.273-5.508,2.612,2.612,0,0,0-1.25-1.777A8.115,8.115,0,0,0,257.969-52.422Zm56.2-10.82L323.574,0H306.768l-.883-11.367H300L299.014,0h-17L290.4-63.242Zm-8.716,40.664q-1.248-10.745-2.5-26.562-2.513,18.165-3.156,26.563ZM356.6-63.242,344.609-22.891V0H329.375V-22.891L317.813-63.242H332.92q3.541,18.516,3.994,24.922,1.367-10.121,4.58-24.922Z" transform="translate(718 399)" fill="#fff"/></g><g transform="translate(521 662.036)" opacity="0"><g transform="translate(686.56 -578.998)"><g transform="translate(0 511)"><path d="M111.7,274.42a14.429,14.429,0,1,0,10.87-4.94,15.4,15.4,0,0,0-10.87,4.94Z" fill="#fff"/><path d="M107.75,339.65c-8.1,7.91-5.93,18.97,4.55,24.51,9.29,4.94,22.14-3.36,22.14-14.03,0-7.71-7.91-15.42-15.81-15.42a15.4,15.4,0,0,0-10.88,4.94Z" fill="#fff"/><path d="M184.04,341.82c-2.37,2.96-4.15,7.31-4.15,9.69s1.78,6.72,4.15,9.69c3.16,3.95,5.73,5.14,11.66,5.14s8.5-1.19,11.66-5.14c2.37-2.97,4.15-7.31,4.15-9.69s-1.78-6.72-4.15-9.69C201.63,334.51,189.77,334.51,184.04,341.82Z" fill="#fff"/><path d="M54.38,393.02a14.429,14.429,0,0,0,0,21.74,15.415,15.415,0,0,0,10.87,4.94,15.415,15.415,0,0,0,10.87-4.94,14.429,14.429,0,0,0,0-21.74,15.415,15.415,0,0,0-10.87-4.94,15.415,15.415,0,0,0-10.87,4.94Z" fill="#fff"/><path d="M135.42,393.02a14.429,14.429,0,0,0,0,21.74c9.69,9.88,26.68,2.96,26.68-10.87,0-8.1-7.71-15.81-15.81-15.81a15.4,15.4,0,0,0-10.87,4.94Z" fill="#fff"/><path d="M200.64,408.83c-9.88,9.69-2.96,26.68,10.87,26.68,8.1,0,15.81-7.71,15.81-15.81s-7.71-15.81-15.81-15.81A15.433,15.433,0,0,0,200.64,408.83Z" fill="#fff"/><path d="M123.56,452.32c-9.88,9.69-2.97,26.68,10.87,26.68,8.1,0,15.81-7.71,15.81-15.81s-7.71-15.81-15.81-15.81A15.317,15.317,0,0,0,123.56,452.32Z" fill="#fff"/></g></g></g></g></svg>