<svg xmlns="http://www.w3.org/2000/svg" viewBox="0 0 177.88 209.52"><defs><style>.a{fill:#fff;}</style></defs><g transform="translate(-736 -201.482)"><g transform="translate(686.56 -578.998)"><g transform="translate(0 511)"><path class="a" d="M111.7,274.42a14.429,14.429,0,1,0,10.87-4.94,15.4,15.4,0,0,0-10.87,4.94Z"/><path class="a" d="M107.75,339.65c-8.1,7.91-5.93,18.97,4.55,24.51,9.29,4.94,22.14-3.36,22.14-14.03,0-7.71-7.91-15.42-15.81-15.42a15.4,15.4,0,0,0-10.88,4.94Z"/><path class="a" d="M184.04,341.82c-2.37,2.96-4.15,7.31-4.15,9.69s1.78,6.72,4.15,9.69c3.16,3.95,5.73,5.14,11.66,5.14s8.5-1.19,11.66-5.14c2.37-2.97,4.15-7.31,4.15-9.69s-1.78-6.72-4.15-9.69C201.63,334.51,189.77,334.51,184.04,341.82Z"/><path class="a" d="M54.38,393.02a14.429,14.429,0,0,0,0,21.74,15.415,15.415,0,0,0,10.87,4.94,15.415,15.415,0,0,0,10.87-4.94,14.429,14.429,0,0,0,0-21.74,15.415,15.415,0,0,0-10.87-4.94,15.415,15.415,0,0,0-10.87,4.94Z"/><path class="a" d="M135.42,393.02a14.429,14.429,0,0,0,0,21.74c9.69,9.88,26.68,2.96,26.68-10.87,0-8.1-7.71-15.81-15.81-15.81a15.4,15.4,0,0,0-10.87,4.94Z"/><path class="a" d="M200.64,408.83c-9.88,9.69-2.96,26.68,10.87,26.68,8.1,0,15.81-7.71,15.81-15.81s-7.71-15.81-15.81-15.81A15.433,15.433,0,0,0,200.64,408.83Z"/><path class="a" d="M123.56,452.32c-9.88,9.69-2.97,26.68,10.87,26.68,8.1,0,15.81-7.71,15.81-15.81s-7.71-15.81-15.81-15.81A15.317,15.317,0,0,0,123.56,452.32Z"/></g></g></g></svg>